<svg width="1327" height="1035" viewBox="0 0 1327 1035" fill="none" xmlns="http://www.w3.org/2000/svg">
<g filter="url(#filter0_d_242_2)">
<path fill-rule="evenodd" clip-rule="evenodd" d="M54.2069 503.399C17.9673 503.399 -0.180799 547.215 25.4455 572.839L159.729 707.113C178.483 725.865 203.917 736.399 230.437 736.399H301.13C327.65 736.399 353.084 746.934 371.838 765.686L532.877 926.713C551.631 945.465 577.065 956 603.585 956H992.438C1064.97 956 1101.3 868.302 1050 817.015L963.613 730.63C944.202 711.22 957.949 678.03 985.399 678.03V678.03C1012.85 678.03 1026.6 644.841 1007.19 625.431L811.851 430.111C793.097 411.359 767.663 400.824 741.143 400.824H506.701C480.18 400.824 454.746 390.289 435.993 371.537L400.74 336.287C381.986 317.535 356.552 307 330.032 307H94.8805C43.6319 307 17.9673 368.963 54.2069 405.199L82.9685 433.959C108.595 459.583 90.4466 503.399 54.2069 503.399V503.399Z" fill="#2D314D"/>
<path fill-rule="evenodd" clip-rule="evenodd" d="M54.2069 503.399C17.9673 503.399 -0.180799 547.215 25.4455 572.839L159.729 707.113C178.483 725.865 203.917 736.399 230.437 736.399H301.13C327.65 736.399 353.084 746.934 371.838 765.686L532.877 926.713C551.631 945.465 577.065 956 603.585 956H992.438C1064.97 956 1101.3 868.302 1050 817.015L963.613 730.63C944.202 711.22 957.949 678.03 985.399 678.03V678.03C1012.85 678.03 1026.6 644.841 1007.19 625.431L811.851 430.111C793.097 411.359 767.663 400.824 741.143 400.824H506.701C480.18 400.824 454.746 390.289 435.993 371.537L400.74 336.287C381.986 317.535 356.552 307 330.032 307H94.8805C43.6319 307 17.9673 368.963 54.2069 405.199L82.9685 433.959C108.595 459.583 90.4466 503.399 54.2069 503.399V503.399Z" stroke="#979797"/>
</g>
<path fill-rule="evenodd" clip-rule="evenodd" d="M192.207 196.399C155.967 196.399 137.819 240.215 163.445 265.839L297.729 400.113C316.483 418.865 341.917 429.399 368.437 429.399H439.13C465.65 429.399 491.084 439.934 509.838 458.686L670.877 619.713C689.631 638.465 715.065 649 741.585 649H1130.44C1202.97 649 1239.3 561.302 1188 510.015L1101.61 423.63C1082.2 404.22 1095.95 371.03 1123.4 371.03V371.03C1150.85 371.03 1164.6 337.841 1145.19 318.431L949.851 123.111C931.097 104.359 905.663 93.8239 879.143 93.8239H644.701C618.18 93.8239 592.746 83.2892 573.993 64.5372L538.74 29.2866C519.986 10.5346 494.552 0 468.032 0H232.88C181.632 0 155.967 61.9626 192.207 98.1995L220.968 126.959C246.595 152.583 228.447 196.399 192.207 196.399V196.399Z" fill="url(#paint0_linear_242_2)"/>
<defs>
<filter id="filter0_d_242_2" x="-63.5511" y="232" width="1214.57" height="803" filterUnits="userSpaceOnUse" color-interpolation-filters="sRGB">
<feFlood flood-opacity="0" result="BackgroundImageFix"/>
<feColorMatrix in="SourceAlpha" type="matrix" values="0 0 0 0 0 0 0 0 0 0 0 0 0 0 0 0 0 0 127 0" result="hardAlpha"/>
<feOffset dy="2"/>
<feGaussianBlur stdDeviation="38.5"/>
<feColorMatrix type="matrix" values="0 0 0 0 0 0 0 0 0 0 0 0 0 0 0 0 0 0 0.0240111 0"/>
<feBlend mode="normal" in2="BackgroundImageFix" result="effect1_dropShadow_242_2"/>
<feBlend mode="normal" in="SourceGraphic" in2="effect1_dropShadow_242_2" result="shape"/>
</filter>
<linearGradient id="paint0_linear_242_2" x1="-519.913" y1="323.138" x2="12.8341" y2="1335.28" gradientUnits="userSpaceOnUse">
<stop stop-color="#33D35E"/>
<stop offset="1" stop-color="#2AB6D9"/>
</linearGradient>
</defs>
</svg>
